<?xml version="1.0" encoding="utf-8"?>
<!-- Generator: Adobe Illustrator 25.2.0, SVG Export Plug-In . SVG Version: 6.00 Build 0)  -->
<svg version="1.1" id="Layer_1" xmlns="http://www.w3.org/2000/svg" xmlns:xlink="http://www.w3.org/1999/xlink" x="0px" y="0px"
	 viewBox="0 0 500 300" style="enable-background:new 0 0 500 300;" xml:space="preserve">
<style type="text/css">
	.st0{fill:#FF531E;}
	.st1{opacity:0.5;fill:#FFCD98;enable-background:new    ;}
	.st2{opacity:0.5;}
	.st3{fill:#FFCD98;}
	.st4{fill:#FFFFFF;}
	.st5{fill:none;stroke:#FF531E;stroke-width:2;stroke-linecap:round;stroke-linejoin:round;}
	.st6{fill:#FFFFFF;stroke:#FF531E;stroke-width:2;stroke-linecap:round;stroke-linejoin:round;}
	.st7{fill:none;stroke:#FFCD98;stroke-width:2;stroke-linecap:round;stroke-linejoin:round;}
	.st8{fill:none;stroke:#EF837A;stroke-width:2;stroke-linecap:round;stroke-linejoin:round;}
	.st9{fill:#FFCD98;stroke:#FF531E;stroke-width:2;stroke-miterlimit:10;}
</style>
<path class="st0" d="M444.6,256.8c0,0.6-0.4,1-1,1H60.9c-0.5,0-1-0.5-1-1l0,0c0-0.5,0.4-1,1-1h382.7
	C444.2,255.8,444.6,256.2,444.6,256.8L444.6,256.8z"/>
<path class="st1" d="M57.9,100.5c3.2,0,6-2.3,6.5-5.4c0.1-0.6,0.1-1.2,0.1-1.8c0-7-5.7-12.7-12.7-12.7c-0.3,0-0.6,0-0.8,0
	c-0.6-7.4-7.1-13-14.5-12.4C29.4,68.7,24,74.7,24,81.8c0,0.3,0,0.7,0,1c-2.2-1.2-4.7-1.8-7.2-1.7C10,81.5,4.5,86.8,4,93.6
	c0,0,0,0.1,0,0.2c-0.2,3.5,2.5,6.6,6.1,6.8c0.1,0,0.2,0,0.4,0L57.9,100.5z"/>
<path class="st1" d="M487,141.9c11.5,0,12.3-17.4,0.8-18c-0.4,0-0.8,0-1.1,0c-2,0-4,0.3-5.9,0.9c-1.8-10.9-12.1-18.2-23-16.4
	c-8.6,1.4-15.3,8.3-16.5,17c-2.5-1.2-5.2-1.8-7.9-1.8c-1.5,0-3,0.2-4.4,0.5c-10.3,2.6-8.3,17.8,2.3,17.8H487z"/>
<path class="st1" d="M377.4,57.2c12.8,0,13.6-19.2,0.9-19.9c-0.4,0-0.8,0-1.2,0c-2.2,0-4.4,0.3-6.6,1c-1.9-12-13.1-20.2-25.1-18.4
	c-9.7,1.5-17.3,9.3-18.5,19.1c-4.3-2-9.1-2.5-13.7-1.4c-11.4,2.8-9.1,19.6,2.5,19.6L377.4,57.2z"/>
<g class="st2">
	<polygon class="st3" points="66.8,24.1 64,27.9 61.2,31.8 59.3,27.5 57.3,23.1 62.1,23.6 	"/>
	<polygon class="st3" points="363,98.7 359.6,104.2 356.2,109.8 353.1,104.1 350,98.4 356.5,98.5 	"/>
	<polygon class="st3" points="468.8,169.3 472.4,171.8 475.9,174.2 472,176.1 468.1,178 468.4,173.6 	"/>
	<polygon class="st3" points="126.8,72.6 130.4,71.4 134.1,70.3 133.3,74 132.5,77.7 129.6,75.2 	"/>
	<polygon class="st3" points="56.8,154 62,155 67.2,155 64.6,158.9 62.1,163.4 59.5,158.9 	"/>
	<polygon class="st3" points="277,21.7 281.7,24 286.3,26.3 282,29.1 277.7,32 277.4,26.8 	"/>
	<polygon class="st3" points="448.9,34.2 451.4,35.4 453.8,36.7 451.5,38.2 449.3,39.7 449.1,37 	"/>
</g>
<path class="st4" d="M232.7,152.6l61.5-18.1c1.1-0.3,1.8-1.5,1.5-2.7l0,0l-25.1-85.5c-0.3-1.1-1.5-1.8-2.7-1.5l-42.1,12.4
	c-0.5,0.2-1,0.5-1.3,1l-13.9,24.3c-0.3,0.5-0.4,1.1-0.2,1.7l19.6,66.9C230.3,152.2,231.5,152.9,232.7,152.6L232.7,152.6z"/>
<path class="st5" d="M232.7,152.6l61.5-18.1c1.1-0.3,1.8-1.5,1.5-2.7l0,0l-25.1-85.5c-0.3-1.1-1.5-1.8-2.7-1.5l-42.1,12.4
	c-0.5,0.2-1,0.5-1.3,1l-13.9,24.3c-0.3,0.5-0.4,1.1-0.2,1.7l19.6,66.9C230.3,152.2,231.5,152.9,232.7,152.6L232.7,152.6z"/>
<path class="st6" d="M225.5,58.5l5.1,17.5c0.4,1.2-0.3,2.5-1.6,2.9l0,0l-18.3,5.4"/>
<path class="st3" d="M235.3,124l0.6-0.2c1.1-0.3,2.2,0.3,2.5,1.4l3.4,11.8c0.3,1.1-0.3,2.2-1.4,2.5l-0.6,0.2
	c-1.1,0.3-2.2-0.3-2.5-1.4l-3.4-11.8C233.6,125.5,234.2,124.4,235.3,124z"/>
<path class="st3" d="M254.6,122.8l0.6-0.2c1.1-0.3,2.2,0.3,2.5,1.4l2.2,7.3c0.3,1.1-0.3,2.2-1.4,2.5l-0.6,0.2
	c-1.1,0.3-2.2-0.3-2.5-1.4l-2.2-7.3C252.9,124.2,253.5,123.1,254.6,122.8z"/>
<path class="st3" d="M262.2,115.7l0.6-0.2c1.1-0.3,2.2,0.3,2.5,1.4l3.5,11.8c0.3,1.1-0.3,2.2-1.4,2.5l-0.6,0.2
	c-1.1,0.3-2.2-0.3-2.5-1.4l-3.5-11.8C260.5,117.1,261.1,116,262.2,115.7z"/>
<path class="st3" d="M243,116.5l0.6-0.2c1.1-0.3,2.2,0.3,2.5,1.4l4.8,16.3c0.3,1.1-0.3,2.2-1.4,2.5l-0.6,0.2
	c-1.1,0.3-2.2-0.3-2.5-1.4l-4.8-16.3C241.4,117.9,242,116.8,243,116.5z"/>
<line class="st7" x1="224.5" y1="93.5" x2="265.8" y2="81.3"/>
<line class="st7" x1="226.4" y1="100.2" x2="267.8" y2="88"/>
<line class="st7" x1="228.4" y1="106.9" x2="269.7" y2="94.7"/>
<line class="st8" x1="281.4" y1="118.7" x2="281.4" y2="118.7"/>
<circle class="st8" cx="281.7" cy="118.2" r="0.5"/>
<path class="st0" d="M177.3,256.8c1.1,0,2.1-0.9,2.3-2l2.3-13.6c0.2-1.1-0.6-2.1-1.6-2.3l-12.6-2.1c-1.1-0.2-1.8-1.2-1.6-2.3
	l13.4-80.7c0.2-1.1-0.6-2.1-1.6-2.3l-38.7-6.4c-1.2-0.1-2.4,0.3-3.3,1.1l-69.8,77c-0.8,1-1.4,2.2-1.7,3.4l-3.6,21.7
	c-0.2,1.1,0.5,2.1,1.6,2.3l0,0l35.4,5.9c1.3,0.2,2.7,0.3,4,0.3L177.3,256.8z M136.8,186c0.7-0.8,1.2-0.6,1,0.5l-7,42
	c-0.2,1.1-1.2,1.8-2.3,1.6l-24-4c-1.1-0.2-1.4-1-0.7-1.9L136.8,186z"/>
<path class="st3" d="M52.9,287h20.2c0.3,0,0.5,0.2,0.5,0.5l0,0c0,0.3-0.2,0.5-0.5,0.5H52.9c-0.3,0-0.5-0.2-0.5-0.5l0,0
	C52.4,287.3,52.6,287,52.9,287z"/>
<path class="st3" d="M112.4,285h20.2c0.3,0,0.5,0.2,0.5,0.5l0,0c0,0.3-0.2,0.5-0.5,0.5h-20.2c-0.3,0-0.5-0.2-0.5-0.5l0,0
	C111.9,285.2,112.1,285,112.4,285z"/>
<path class="st3" d="M156.7,279h20.2c0.3,0,0.5,0.2,0.5,0.5l0,0c0,0.3-0.2,0.5-0.5,0.5h-20.2c-0.3,0-0.5-0.2-0.5-0.5l0,0
	C156.2,279.2,156.4,279,156.7,279z"/>
<path class="st3" d="M191,293.1h20.2c0.3,0,0.5,0.2,0.5,0.5l0,0c0,0.3-0.2,0.5-0.5,0.5H191c-0.3,0-0.5-0.2-0.5-0.5l0,0
	C190.5,293.3,190.7,293.1,191,293.1z"/>
<path class="st3" d="M262.6,287h20.2c0.3,0,0.5,0.2,0.5,0.5l0,0c0,0.3-0.2,0.5-0.5,0.5h-20.2c-0.3,0-0.5-0.2-0.5-0.5l0,0
	C262.1,287.3,262.3,287,262.6,287z"/>
<path class="st3" d="M347.2,288h20.2c0.3,0,0.5,0.2,0.5,0.5l0,0c0,0.3-0.2,0.5-0.5,0.5h-20.2c-0.3,0-0.5-0.2-0.5-0.5l0,0
	C346.8,288.3,347,288,347.2,288z"/>
<path class="st3" d="M82.1,269.9h20.2c0.3,0,0.5,0.2,0.5,0.5l0,0c0,0.3-0.2,0.5-0.5,0.5H82.1c-0.3,0-0.5-0.2-0.5-0.5l0,0
	C81.6,270.1,81.8,269.9,82.1,269.9z"/>
<path class="st3" d="M229.3,275.9h20.2c0.3,0,0.5,0.2,0.5,0.5l0,0c0,0.3-0.2,0.5-0.5,0.5h-20.2c-0.3,0-0.5-0.2-0.5-0.5l0,0
	C228.8,276.2,229,275.9,229.3,275.9z"/>
<path class="st3" d="M381.5,275.9h20.2c0.3,0,0.5,0.2,0.5,0.5l0,0c0,0.3-0.2,0.5-0.5,0.5h-20.2c-0.3,0-0.5-0.2-0.5-0.5l0,0
	C381,276.2,381.3,275.9,381.5,275.9z"/>
<path class="st3" d="M306.9,275.9h20.2c0.3,0,0.5,0.2,0.5,0.5l0,0c0,0.3-0.2,0.5-0.5,0.5h-20.2c-0.3,0-0.5-0.2-0.5-0.5l0,0
	C306.4,276.2,306.7,275.9,306.9,275.9z"/>
<path class="st3" d="M407.7,285h20.2c0.3,0,0.5,0.2,0.5,0.5l0,0c0,0.3-0.2,0.5-0.5,0.5h-20.2c-0.3,0-0.5-0.2-0.5-0.5l0,0
	C407.2,285.2,407.5,285,407.7,285z"/>
<path class="st0" d="M51.5,256.8c0,0.5-0.4,0.9-0.9,1H28.2c-0.5-0.1-0.9-0.5-0.9-1l0,0c0-0.5,0.4-0.9,0.9-1h22.4
	C51.1,255.9,51.5,256.3,51.5,256.8z"/>
<path class="st0" d="M476.1,256.8c0,0.5-0.4,0.9-0.9,1h-22.4c-0.5-0.1-0.9-0.5-0.9-1l0,0c0-0.5,0.4-0.9,0.9-1h22.4
	C475.7,255.8,476.1,256.3,476.1,256.8z"/>
<path class="st1" d="M177,24.9c6.4,0,7-9.6,0.6-10.1c-0.3,0-0.6,0-0.9,0c-1.1,0-2.3,0.2-3.3,0.5c-1-6.1-6.8-10.2-12.9-9.2
	c-4.9,0.8-8.6,4.7-9.3,9.6c-1.4-0.7-2.9-1-4.4-1c-0.9,0-1.8,0.1-2.6,0.3c-5.7,1.5-4.5,10,1.4,10L177,24.9z"/>
<path class="st0" d="M305.8,205.9c2.8,5.5,6.6,10.1,11.4,13.8c4.8,3.7,10.5,6.4,17,8.1c6.5,1.7,13.8,2.4,21.7,2.1
	c7.9-0.3,14.4-1.5,19.4-3.5c5-2,8.4-3.8,10.3-5.2c0.4,8.8-2.7,15.8-9.1,21.1c-6.4,5.3-15.1,8.1-26.2,8.6c-4.3,0.2-9-0.1-14.1-0.9
	c-5.1-0.8-10-2-14.7-3.6c-2.2,1.6-4,3.9-5.5,7c-0.7,1.5-1.3,3-1.6,4.5h98.1c5.3-6.2,9.4-13.7,12.3-22.4c3.2-9.7,4.6-20.9,4.1-33.5
	c-0.9-22.2-7.4-39-19.5-50.5c-12.1-11.5-28.3-16.9-48.6-16.1c-10.2,0.4-19,2.1-26.6,5.1c-7.6,3-13.8,6.8-18.8,11.5
	c-5,4.7-8.6,10-11,16c-2.3,6-3.4,12.2-3.1,18.7C301.5,194,303,200.4,305.8,205.9z M349,171.3c3.1-3.2,7.4-5,13.1-5.2
	c6.4-0.3,11.3,1.5,14.7,5.3c3.4,3.8,5.4,10,5.9,18.7l0.1,2.7c-2.2,2.2-4.9,4-8.2,5.3c-3.3,1.4-6.6,2.1-9.9,2.2
	c-5.7,0.2-10.4-1.1-14.1-4.1c-3.7-3-5.7-7-5.9-12.2C344.5,178.8,346,174.5,349,171.3z"/>
<path class="st9" d="M231.2,256.8h43.9l2.5-90.9c0.2-6.5-1.8-11.8-6-15.7c-4.2-3.9-10-6-17.4-6.2l-9.6-0.3l-29.2,7.9
	c-12.7,3.3-19.1,9.5-19.4,18.6c-0.1,4.9,1.1,8.7,3.6,11.5c2.5,2.8,5,5,7.6,6.6l26-6.4L231.2,256.8z"/>
</svg>
