<?xml version="1.0" encoding="utf-8"?>
<!-- Generator: Adobe Illustrator 25.1.0, SVG Export Plug-In . SVG Version: 6.00 Build 0)  -->
<svg version="1.1" id="Layer_1" xmlns="http://www.w3.org/2000/svg" xmlns:xlink="http://www.w3.org/1999/xlink" x="0px" y="0px"
	 viewBox="0 0 500 300" style="enable-background:new 0 0 500 300;" xml:space="preserve">
<style type="text/css">
	.st0{fill:none;stroke:#FF531E;stroke-width:2;stroke-miterlimit:10;}
	.st1{fill:#FFCD98;}
	.st2{fill:#FF531E;}
	.st3{opacity:0.5;fill:#FFCD98;enable-background:new    ;}
	.st4{opacity:0.5;}
	.st5{fill:#FFFFFF;stroke:#FF531E;stroke-width:0.75;stroke-miterlimit:10;}
</style>
<path class="st0" d="M299.7,256.8c0-1.9-0.1-3.9-0.2-5.8c-1.3-24.7-7-43.3-17-55.8s-23.8-18.2-41.3-17.3
	c-17.6,0.9-30.6,8.2-39.2,21.7c-8.6,13.5-12.2,32.6-10.8,57.3L299.7,256.8L299.7,256.8z"/>
<path class="st1" d="M218.1,256.8H273c0-1.4-0.1-2.9-0.2-4.4c-1.1-19.2-4-33-8.8-41.4s-12-12.3-21.6-11.8
	c-9.5,0.5-16.3,5.2-20.1,14.2C218.3,222.5,216.9,237,218.1,256.8L218.1,256.8z"/>
<path class="st0" d="M218.1,256.8H273c0-1.4-0.1-2.9-0.2-4.4c-1.1-19.2-4-33-8.8-41.4s-12-12.3-21.6-11.8
	c-9.5,0.5-16.3,5.2-20.1,14.2C218.3,222.5,216.9,237,218.1,256.8L218.1,256.8z"/>
<path class="st2" d="M444.6,256.8c0,0.6-0.4,1-1,1H60.9c-0.5,0-1-0.5-1-1l0,0c0-0.5,0.4-1,1-1h382.7
	C444.2,255.8,444.6,256.2,444.6,256.8L444.6,256.8z"/>
<path class="st3" d="M57.9,100.5c3.2,0,6-2.3,6.5-5.4c0.1-0.6,0.1-1.2,0.1-1.8c0-7-5.7-12.7-12.7-12.7c-0.3,0-0.6,0-0.8,0
	c-0.6-7.4-7.1-13-14.5-12.4C29.4,68.7,24,74.7,24,81.8c0,0.3,0,0.7,0,1c-2.2-1.2-4.7-1.8-7.2-1.7C10,81.5,4.5,86.8,4,93.6
	c0,0,0,0.1,0,0.2c-0.2,3.5,2.5,6.6,6.1,6.8c0.1,0,0.2,0,0.4,0L57.9,100.5z"/>
<path class="st3" d="M487,141.9c11.5,0,12.3-17.4,0.8-18c-0.4,0-0.8,0-1.1,0c-2,0-4,0.3-5.9,0.9c-1.8-10.9-12.1-18.2-23-16.4
	c-8.6,1.4-15.3,8.3-16.5,17c-2.5-1.2-5.2-1.8-7.9-1.8c-1.5,0-3,0.2-4.4,0.5c-10.3,2.6-8.3,17.8,2.3,17.8H487z"/>
<path class="st3" d="M377.4,57.2c12.8,0,13.6-19.2,0.9-19.9c-0.4,0-0.8,0-1.2,0c-2.2,0-4.4,0.3-6.6,1c-1.9-12-13.1-20.2-25.1-18.4
	c-9.7,1.5-17.3,9.3-18.5,19.1c-4.3-2-9.1-2.5-13.7-1.4c-11.4,2.8-9.1,19.6,2.5,19.6L377.4,57.2z"/>
<g class="st4">
	<polygon class="st1" points="66.8,24.1 64,27.9 61.2,31.8 59.3,27.5 57.3,23.1 62.1,23.6 	"/>
	<polygon class="st1" points="363,98.7 359.6,104.2 356.2,109.8 353.1,104.1 350,98.4 356.5,98.5 	"/>
	<polygon class="st1" points="468.8,169.3 472.4,171.8 475.9,174.2 472,176.1 468.1,178 468.4,173.6 	"/>
	<polygon class="st1" points="126.8,72.6 130.4,71.4 134.1,70.3 133.3,74 132.5,77.7 129.6,75.2 	"/>
	<polygon class="st1" points="56.8,154 62,155 67.2,155 64.6,158.9 62.1,163.4 59.5,158.9 	"/>
	<polygon class="st1" points="277,21.7 281.7,24 286.3,26.3 282,29.1 277.7,32 277.4,26.8 	"/>
	<polygon class="st1" points="448.9,34.2 451.4,35.4 453.8,36.7 451.5,38.2 449.3,39.7 449.1,37 	"/>
</g>
<path class="st2" d="M167.3,256.8c1.1,0,2.1-0.9,2.3-2l2.3-13.6c0.2-1.1-0.6-2.1-1.6-2.3l-12.6-2.1c-1.1-0.2-1.8-1.2-1.6-2.3
	l13.4-80.7c0.2-1.1-0.6-2.1-1.6-2.3l-38.7-6.4c-1.2-0.1-2.4,0.3-3.3,1.1l-69.8,77c-0.8,1-1.4,2.2-1.7,3.4l-3.6,21.7
	c-0.2,1.1,0.5,2.1,1.6,2.3l0,0l35.4,5.9c1.3,0.2,2.7,0.3,4,0.3L167.3,256.8z M126.8,186c0.7-0.8,1.2-0.6,1,0.5l-7,42
	c-0.2,1.1-1.2,1.8-2.3,1.6l-24-4c-1.1-0.2-1.4-1-0.7-1.9L126.8,186z"/>
<path class="st1" d="M52.9,287h20.2c0.3,0,0.5,0.2,0.5,0.5l0,0c0,0.3-0.2,0.5-0.5,0.5H52.9c-0.3,0-0.5-0.2-0.5-0.5l0,0
	C52.4,287.3,52.6,287,52.9,287z"/>
<path class="st1" d="M112.4,285h20.2c0.3,0,0.5,0.2,0.5,0.5l0,0c0,0.3-0.2,0.5-0.5,0.5h-20.2c-0.3,0-0.5-0.2-0.5-0.5l0,0
	C111.9,285.2,112.1,285,112.4,285z"/>
<path class="st1" d="M156.7,279h20.2c0.3,0,0.5,0.2,0.5,0.5l0,0c0,0.3-0.2,0.5-0.5,0.5h-20.2c-0.3,0-0.5-0.2-0.5-0.5l0,0
	C156.2,279.2,156.4,279,156.7,279z"/>
<path class="st1" d="M191,293.1h20.2c0.3,0,0.5,0.2,0.5,0.5l0,0c0,0.3-0.2,0.5-0.5,0.5H191c-0.3,0-0.5-0.2-0.5-0.5l0,0
	C190.5,293.3,190.7,293.1,191,293.1z"/>
<path class="st1" d="M262.6,287h20.2c0.3,0,0.5,0.2,0.5,0.5l0,0c0,0.3-0.2,0.5-0.5,0.5h-20.2c-0.3,0-0.5-0.2-0.5-0.5l0,0
	C262.1,287.3,262.3,287,262.6,287z"/>
<path class="st1" d="M347.2,288h20.2c0.3,0,0.5,0.2,0.5,0.5l0,0c0,0.3-0.2,0.5-0.5,0.5h-20.2c-0.3,0-0.5-0.2-0.5-0.5l0,0
	C346.8,288.3,347,288,347.2,288z"/>
<path class="st1" d="M82.1,269.9h20.2c0.3,0,0.5,0.2,0.5,0.5l0,0c0,0.3-0.2,0.5-0.5,0.5H82.1c-0.3,0-0.5-0.2-0.5-0.5l0,0
	C81.6,270.1,81.8,269.9,82.1,269.9z"/>
<path class="st1" d="M229.3,275.9h20.2c0.3,0,0.5,0.2,0.5,0.5l0,0c0,0.3-0.2,0.5-0.5,0.5h-20.2c-0.3,0-0.5-0.2-0.5-0.5l0,0
	C228.8,276.2,229,275.9,229.3,275.9z"/>
<path class="st1" d="M381.5,275.9h20.2c0.3,0,0.5,0.2,0.5,0.5l0,0c0,0.3-0.2,0.5-0.5,0.5h-20.2c-0.3,0-0.5-0.2-0.5-0.5l0,0
	C381,276.2,381.3,275.9,381.5,275.9z"/>
<path class="st1" d="M306.9,275.9h20.2c0.3,0,0.5,0.2,0.5,0.5l0,0c0,0.3-0.2,0.5-0.5,0.5h-20.2c-0.3,0-0.5-0.2-0.5-0.5l0,0
	C306.4,276.2,306.7,275.9,306.9,275.9z"/>
<path class="st1" d="M407.7,285h20.2c0.3,0,0.5,0.2,0.5,0.5l0,0c0,0.3-0.2,0.5-0.5,0.5h-20.2c-0.3,0-0.5-0.2-0.5-0.5l0,0
	C407.2,285.2,407.5,285,407.7,285z"/>
<path class="st2" d="M51.5,256.8c0,0.5-0.4,0.9-0.9,1H28.2c-0.5-0.1-0.9-0.5-0.9-1l0,0c0-0.5,0.4-0.9,0.9-1h22.4
	C51.1,255.9,51.5,256.3,51.5,256.8z"/>
<path class="st2" d="M476.1,256.8c0,0.5-0.4,0.9-0.9,1h-22.4c-0.5-0.1-0.9-0.5-0.9-1l0,0c0-0.5,0.4-0.9,0.9-1h22.4
	C475.7,255.8,476.1,256.3,476.1,256.8z"/>
<path class="st3" d="M177,24.9c6.4,0,7-9.6,0.6-10.1c-0.3,0-0.6,0-0.9,0c-1.1,0-2.3,0.2-3.3,0.5c-1-6.1-6.8-10.2-12.9-9.2
	c-4.9,0.8-8.6,4.7-9.3,9.6c-1.4-0.7-2.9-1-4.4-1c-0.9,0-1.8,0.1-2.6,0.3c-5.7,1.5-4.5,10,1.4,10L177,24.9z"/>
<path class="st2" d="M417.3,213.9c-4.1-15.8-20.7-23.2-38.6-21.3l-0.1-0.4c16.3-9.7,22.3-22,19-34.8c-4.3-16.5-24.7-25.7-55.2-17.8
	c-18.5,4.8-34.5,13.6-41.9,20.5l12.1,18.7c5.2-4.5,16.4-11.9,28-14.9c14.1-3.6,22.5-0.1,24.4,7.2c2.6,10.2-10.8,17.4-21.9,20.5
	l-13,3.3l5.2,20.2l13.6-3.5c14.7-3.8,30.2-2,33.3,9.8c2.3,9.1-4.6,18.4-22,22.9c-13.6,3.5-28.5,2.2-35.1,1.1l-0.7,11.5h67.7
	C412.2,245.9,421.4,229.9,417.3,213.9z"/>
<path class="st2" d="M244.4,67.7c-25.6,0-46.4,20.8-46.4,46.4c0,25.6,20.8,46.4,46.4,46.4s46.4-20.8,46.4-46.4
	C290.8,88.5,270,67.7,244.4,67.7z M244.4,145.7c-17.5,0-31.7-14.2-31.7-31.7c0-17.5,14.2-31.7,31.7-31.7c17.5,0,31.7,14.2,31.7,31.7
	C276,131.6,261.9,145.7,244.4,145.7z"/>
<rect x="199.3" y="106.2" transform="matrix(0.7071 -0.7071 0.7071 0.7071 -9.3812 205.496)" class="st2" width="88.2" height="15.7"/>
<g>
	<path class="st5" d="M196.3,104.6c1.6-0.2,3.7-0.4,6-0.4c3.7,0,6.1,0.6,8,1.9c2,1.4,3.3,3.5,3.3,6.6c0,3.4-1.4,5.7-3.3,7.1
		c-2.1,1.5-5.2,2.3-9,2.3c-2.3,0-3.9-0.1-5-0.3V104.6z M200.7,118.9c0.4,0.1,1,0.1,1.5,0.1c4,0,6.6-1.9,6.6-6.1
		c0-3.6-2.4-5.6-6.2-5.6c-1,0-1.6,0.1-2,0.2V118.9z"/>
	<path class="st5" d="M228.1,114.5h-7.2v4.2h8v3.2h-12.5v-17.5h12.1v3.2h-7.6v3.6h7.2V114.5z"/>
	<path class="st5" d="M232,121.9v-17.5h5.2l4.1,6.4c1.2,1.8,2.3,4,3.2,6h0.1c-0.3-2.3-0.4-4.7-0.4-7.3v-5.1h4.1v17.5h-4.6l-4.2-6.8
		c-1.2-1.9-2.4-4.1-3.4-6.2l-0.1,0c0.1,2.3,0.2,4.8,0.2,7.6v5.3H232z"/>
	<path class="st5" d="M256.5,104.4v17.5H252v-17.5H256.5z"/>
	<path class="st5" d="M271.9,114.5h-7.2v4.2h8v3.2h-12.5v-17.5h12.1v3.2h-7.6v3.6h7.2V114.5z"/>
	<path class="st5" d="M275.8,104.6c1.6-0.2,3.7-0.4,6-0.4c3.7,0,6.1,0.6,8,1.9c2,1.4,3.3,3.5,3.3,6.6c0,3.4-1.4,5.7-3.3,7.1
		c-2.1,1.5-5.2,2.3-9,2.3c-2.3,0-3.9-0.1-5-0.3V104.6z M280.2,118.9c0.4,0.1,1,0.1,1.5,0.1c4,0,6.6-1.9,6.6-6.1
		c0-3.6-2.4-5.6-6.2-5.6c-1,0-1.6,0.1-2,0.2V118.9z"/>
</g>
</svg>
